<svg xmlns="http://www.w3.org/2000/svg" width="256" height="256" viewBox="0 0 100 100"><rect width="100" height="100" rx="20" fill="#000000"></rect><path d="M49.25 86.40Q40.75 86.40 32.75 84.30Q24.75 82.20 19.75 78.70L19.75 78.70L26.25 64.10Q30.95 67.20 37.15 69.10Q43.35 71 49.35 71L49.35 71Q60.75 71 60.75 65.30L60.75 65.30Q60.75 62.30 57.50 60.85Q54.25 59.40 47.05 57.80L47.05 57.80Q39.15 56.10 33.85 54.15Q28.55 52.20 24.75 47.90Q20.95 43.60 20.95 36.30L20.95 36.30Q20.95 29.90 24.45 24.75Q27.95 19.60 34.90 16.60Q41.85 13.60 51.95 13.60L51.95 13.60Q58.85 13.60 65.55 15.15Q72.25 16.70 77.35 19.70L77.35 19.70L71.25 34.40Q61.25 29 51.85 29L51.85 29Q45.95 29 43.25 30.75Q40.55 32.50 40.55 35.30L40.55 35.30Q40.55 38.10 43.75 39.50Q46.95 40.90 54.05 42.40L54.05 42.40Q62.05 44.10 67.30 46.05Q72.55 48 76.40 52.25Q80.25 56.50 80.25 63.80L80.25 63.80Q80.25 70.10 76.75 75.20Q73.25 80.30 66.25 83.35Q59.25 86.40 49.25 86.40L49.25 86.40Z" fill="#fff"></path></svg>